<svg width="30" height="30" viewBox="0 0 30 30" fill="none" xmlns="http://www.w3.org/2000/svg">
<g clip-path="url(#clip0_70_14)">
<path d="M0 15.0031C0 15.5741 0.462833 16.0369 1.03386 16.0369H20.7253L16.8844 19.8718C16.4817 20.2745 16.4817 20.9297 16.8844 21.3324C17.0828 21.5308 17.3472 21.633 17.6117 21.633C17.8762 21.633 18.1407 21.5308 18.339 21.3324L23.9351 15.7364C24.3378 15.3336 24.3378 14.6785 23.9351 14.2757L18.339 8.67967C17.9363 8.27694 17.2811 8.27694 16.8784 8.67967C16.4757 9.08239 16.4757 9.73757 16.8784 10.1403L20.7133 13.9752H1.03386C0.462833 13.9752 0 14.432 0 15.0031Z" fill="#7F1716"/>
<path d="M23.8269 29.7055C27.235 29.7055 30 26.9345 30 23.5264V6.47368C30 3.06554 27.229 0.294556 23.8269 0.294556H6.77419C3.36605 0.294556 0.601074 3.06554 0.601074 6.47368V9.97799C0.601074 10.549 1.06391 11.0058 1.62892 11.0058C2.19995 11.0058 2.66279 10.543 2.66279 9.97799V6.47368C2.66279 4.2076 4.50811 2.35627 6.77419 2.35627H23.8269C26.093 2.35627 27.9383 4.20159 27.9383 6.47368V23.5264C27.9383 25.7925 26.093 27.6438 23.8269 27.6438H6.77419C4.50811 27.6438 2.66279 25.7985 2.66279 23.5264V20.0641C2.66279 19.4931 2.19995 19.0303 1.62892 19.0303C1.0579 19.0303 0.601074 19.4931 0.601074 20.0641V23.5264C0.601074 26.9345 3.37206 29.7055 6.77419 29.7055H23.8269Z" fill="#7F1716"/>
</g>
<defs>
<clipPath id="clip0_70_14">
<rect width="30" height="30" fill="white"/>
</clipPath>
</defs>
</svg>
