<?xml version="1.0" encoding="UTF-8" standalone="no"?>
<svg
   width="382.55466pt"
   height="150.05371pt"
   viewBox="0 0 382.55465 150.05372"
   version="1.1"
   id="svg79"
   xmlns="http://www.w3.org/2000/svg">
  <g
     id="surface1"
     transform="translate(-32.726563,-24.574219)">
    <path
       style="fill:#ffffff;fill-opacity:1;fill-rule:nonzero;stroke:none"
       d="m 99.851563,40.882813 c 1.570317,0 3.144527,0 4.718747,0 0,0 -0.88281,-1.878907 -1.02734,-6.796875 4.9375,0.136718 6.82422,1 6.82422,1 0,-1.570313 0,-3.144532 0,-4.714844 0,0 -1.88672,0.886719 -6.82422,1.027344 0.14062,-4.941407 1.02734,-6.824219 1.02734,-6.824219 -1.57422,0 -3.14843,0 -4.718747,0 0,0 0.867187,1.882812 1.003907,6.820312 -4.921876,-0.140625 -6.796876,-1.023437 -6.796876,-1.023437 0,1.570312 0,3.144531 0,4.714844 0,0 1.875,-0.859375 6.796876,-1 -0.14063,4.917968 -1.003907,6.796875 -1.003907,6.796875"
       id="path2" />
    <path
       style="fill:#ffffff;fill-opacity:1;fill-rule:nonzero;stroke:none"
       d="m 161.41797,64.300781 c 0.0117,14.414063 -0.0234,25.378907 -0.0117,39.792969 0.0156,17.0625 0,51.97266 -0.004,59.14062 -6.74609,-1.73046 -13.77343,-3.22656 -20.64453,-3.4375 -13.17578,-0.40625 -28.04297,3.31641 -38.36328,12.25 -0.0391,0.0352 -0.0742,0.0703 -0.11328,0.10157 -9.648437,-8.4375 -23.203125,-12.13282 -35.5625,-12.29297 -7.875,-0.10156 -15.917969,1.4375 -23.671875,3.17578 -0.01172,-14.07031 -0.02344,-28.75391 -0.03906,-42.78516 -0.01563,-18.74609 0.03906,-54.890621 0.03906,-55.945309 0,-0.933593 -3.679687,-2.3125 -3.679687,-1.382812 0.01172,14.421875 0.02344,26.773437 0.03906,41.195311 0.01563,18.74219 -0.03906,59.03125 -0.03906,60.08594 0,0.83984 2.351562,0.66406 2.792968,0.55859 7.105469,-1.70703 14.5625,-2.4375 21.851563,-2.5664 12.761719,-0.22657 27.066406,2.55468 36.539061,11.90625 0.71875,0.70703 2.74219,0.70703 3.46094,0 9.60937,-9.48438 23.79297,-12.32032 36.74609,-11.97266 7.20703,0.19141 14.61719,1.08594 21.59766,2.94922 0.43359,0.11719 2.70312,0.27734 2.69922,-0.55469 -0.0117,-14.41797 -0.0273,-29.52344 -0.043,-43.9375 -0.0195,-18.8125 0.0469,-56.566405 0.043,-57.664061 0,-0.929688 -3.64063,0.453125 -3.63672,1.382812"
       id="path4" />
    <path
       style="fill:#ffffff;fill-opacity:1;fill-rule:nonzero;stroke:none"
       d="m 58.398438,51.558594 c 6.730468,-5.109375 11.589843,-10.761719 20.09375,-10.761719 4.34375,0 7.246093,4.429688 7.246093,7.136719 0,1.882812 -0.503906,5.679687 -4.707031,5.679687 -3.675781,0 -4.742187,-4.472656 -3.246094,-6.945312 -5.421875,0 -5.710937,8.394531 3.3125,8.394531 3.867188,0 7.847657,-2.242187 7.847657,-6.902344 0,-3.136718 -2.226563,-8.605468 -10.46875,-8.605468 -9.039063,0 -14.816407,4.613281 -22.117188,10.082031 -7.535156,5.648437 -14.34375,7.183594 -23.632812,6.234375 V 57.25 c 0.0078,0.0039 0.01563,0.0039 0.01953,0.0039 0,15.386719 -0.0078,96.71093 -0.0078,97.28515 0,0.92969 3.589844,2.3125 3.589844,1.38281 0.0039,-13.92187 0.0078,-90.093741 0.0078,-98.242178 7.992187,0.597656 15.632812,-1.242188 22.0625,-6.121094"
       id="path6" />
    <path
       style="fill:#ffffff;fill-opacity:1;fill-rule:nonzero;stroke:none"
       d="m 171.55859,55.871094 c -9.28906,0.949219 -16.09765,-0.585938 -23.63672,-6.234375 -7.30078,-5.46875 -13.07421,-10.082031 -22.11328,-10.082031 -8.24609,0 -10.46875,5.46875 -10.46875,8.605468 0,4.660157 3.98047,6.902344 7.84766,6.902344 9.02344,0 8.73437,-8.394531 3.3125,-8.394531 1.49219,2.472656 0.42969,6.945312 -3.24609,6.945312 -4.20313,0 -4.71094,-3.796875 -4.71094,-5.679687 0,-2.707031 2.90625,-7.136719 7.25,-7.136719 8.5,0 13.36328,5.652344 20.09375,10.761719 6.42969,4.878906 14.0664,6.71875 22.05859,6.121094 0,8.148437 0.008,84.320312 0.008,98.242182 0,0.92969 3.58985,-0.45312 3.58985,-1.38281 0,-0.57422 -0.004,-81.898435 -0.008,-97.285154 0.008,0 0.0156,0 0.0234,-0.0039 V 55.8711"
       id="path8" />
    <path
       style="fill:#ffffff;fill-opacity:1;fill-rule:nonzero;stroke:none"
       d="M 87.417969,101.53906 C 85.195313,97.359375 77.390625,81.339844 74.054688,74.539063 71.8125,69.96875 68.757813,68.230469 66.4375,67.679688 c -1.59375,-0.378907 -9.480469,0.0039 -11.347656,0.01172 v 0.125 c 2.394531,1.011719 7.164062,6.308594 9.015625,10.308594 1.242187,2.691406 8.710937,17.996094 11.300781,22.902338 2.578125,4.88282 8.242188,6.65625 10.644531,6.95313 1.105469,0.13281 2.25,0.12891 3.394532,0.10547 -11.648438,15.36719 -22.375,29.5664 -21.15625,27.88281 -3.808594,4.6875 -7.445313,6.57422 -11.003907,7.65234 l 0.01563,0.66797 c 9.304688,0 15.921875,-6.85547 17.074219,-8.35156 2.027344,-2.63281 12.332031,-16.42187 23.003906,-30.54297 v 33.35156 h 9.203129 V 94.980469 c 1.96485,1.578125 4.26563,4.0625 5.92188,7.042971 0.89062,1.60156 5.38672,12.14844 8.35156,16.23828 2.48828,3.43359 6.33594,3.97266 9.96484,3.98047 -6.74609,8.89062 -13.65625,17.98828 -18.44531,24.23047 -1.64453,2.14062 -3.30078,4.21093 -5.13672,6.13671 -0.73047,0.76563 -4.5664,5.1211 -8.027347,5.1211 -3.796875,0 -6.226563,-2.96875 -6.226563,-5.91406 0,-3.19141 1.726563,-6.51172 5.480469,-7.34766 3.566411,-0.79297 6.500001,1.10547 7.046881,1.66797 0,0 3.60156,-1.01172 3.60547,-1.04297 -2.05078,-1.83203 -7.61328,-2.91016 -10.88282,-2.35156 -5.0625,0.86328 -9.523437,4.24218 -9.523437,9.3789 0,3.45313 3.480468,7.16016 10.445312,7.16016 8.367195,0 13.917975,-6.38281 15.761725,-8.38281 0.89844,-0.97657 21.60937,-28.48828 33.46484,-44.03906 h -0.0195 c 0.28516,-0.37891 0.51953,-0.69922 0.69922,-0.94141 1.68359,-2.29297 7.64844,-9.585939 4.89062,-12.785157 l -6.91796,-0.0078 v 0.386719 c 3.52343,2.027344 -1.75,9.707028 -4.4961,13.347658 h -0.0469 c -2.94532,3.875 -6.3086,8.3125 -9.77735,12.88281 -0.78906,-0.78125 -1.30468,-1.7461 -1.83984,-2.76563 -1.64063,-3.10937 -6.26953,-12.17578 -8.66797,-17.152338 -1.58984,-3.304688 -4.6875,-6.523438 -7.82422,-6.6875 -2.58203,-0.136719 -5.20703,0.105469 -7.80078,0.128906 v -0.0039 c 4.85938,-6.375 9.28906,-12.117188 12.41797,-16.050781 1.67969,-2.109375 3.30078,-4.210938 5.13672,-6.136719 0.73047,-0.765625 4.56639,-5.121094 8.02734,-5.121094 3.79687,0 6.22656,2.96875 6.22656,5.910156 0,3.195313 -1.72656,6.519532 -5.48046,7.351563 -3.56641,0.792969 -6.5,-1.105469 -7.04688,-1.667969 0,0 -3.60156,1.011719 -3.60547,1.042969 2.05078,1.832031 7.60938,2.910156 10.88281,2.351562 5.0625,-0.863281 9.52344,-4.242187 9.52344,-9.378906 0,-3.453125 -3.48438,-7.160156 -10.44531,-7.160156 -8.37109,0 -13.91797,6.382812 -15.76172,8.382812 -0.64062,0.699219 -4.54297,5.761719 -9.875,12.746094 V 47.867188 h -9.203129 v 49.761718 c -2.023437,2.664064 -4.097656,5.394534 -6.15625,8.113284 -1.539062,-1.01172 -2.835937,-2.37891 -3.804687,-4.20313"
       id="path10" />
    <path
       style="fill:#ffffff;fill-opacity:1;fill-rule:nonzero;stroke:none"
       d="m 216.48437,55.035156 c -1.53125,0.316407 -2.64453,1.332032 -3.33593,3.042969 l -5.10157,11.773438 c -1.5,3.402343 -2.54687,5.53125 -3.14843,6.378906 -1.30469,1.828125 -3.00782,2.738281 -5.10547,2.738281 -1.1211,0 -2.09766,-0.226562 -2.92578,-0.679687 -1.13282,-0.566407 -1.69922,-1.40625 -1.69922,-2.515625 0,-1.316407 0.61719,-1.972657 1.85156,-1.972657 0.51172,0 0.99219,0.179688 1.44922,0.542969 0.40625,0.417969 0.60937,0.871094 0.60937,1.359375 l -0.0312,0.816406 c 0,0.671875 0.44532,1.003907 1.34375,1.003907 1.82422,0 3.35157,-1.65625 4.57422,-4.96875 l -8.38672,-14.816407 c -0.95312,-1.734375 -1.875,-2.625 -2.77343,-2.671875 v -1.460937 h 7.60547 v 1.460937 c -0.96485,0.02344 -1.44532,0.355469 -1.44532,0.988282 0,0.398437 0.27735,1.066406 0.83203,2.007812 l 5.90235,10.597656 h -0.0664 l 4.64453,-10.699218 c 0.27344,-0.535157 0.41016,-1.023438 0.41016,-1.464844 0,-0.453125 -0.16797,-0.816406 -0.49609,-1.089844 -0.29297,-0.292969 -0.74219,-0.394531 -1.34375,-0.304687 v -1.496094 h 6.63671 v 1.429687"
       id="path12" />
    <path
       style="fill:#ffffff;fill-opacity:1;fill-rule:nonzero;stroke:none"
       d="m 221.33984,69.273438 c 1.23438,0 2.16016,-0.316407 2.76953,-0.953125 0.20704,-0.25 0.6211,-1.027344 1.2461,-2.332032 1.17578,-2.390625 2.70703,-3.585937 4.58984,-3.585937 0.38672,0 0.69531,0.01563 0.91797,0.05078 v 4.488281 h -1.30859 c -0.38282,-0.828125 -0.82813,-1.242187 -1.32422,-1.242187 -0.46875,0 -0.98828,0.496094 -1.56641,1.480469 -0.78125,1.238281 -1.46875,2.03125 -2.05859,2.382812 v -0.01563 c 1.40625,0.238281 2.5625,0.921875 3.46875,2.058594 0.625,0.703125 1.34375,2.003906 2.16015,3.910156 0.375,0.785156 0.60157,1.242188 0.67969,1.378906 0.28516,0.261719 0.88672,0.535157 1.80469,0.816407 v 0.953125 c -0.53125,0.171875 -1.06641,0.253906 -1.59766,0.253906 -1.60156,0 -2.82031,-0.433594 -3.65625,-1.308594 -0.57031,-0.542969 -1.19922,-1.734375 -1.89062,-3.574219 -0.48828,-1.15625 -0.90625,-1.933593 -1.25781,-2.328125 -0.58985,-0.671875 -1.36329,-1.003906 -2.3125,-1.003906 h -1.00782 v 3.691406 c 0,1.78125 0.59766,2.726563 1.78907,2.839844 v 1.378906 h -6.6875 v -1.378906 c 1.1914,-0.113281 1.78906,-1.058594 1.78906,-2.839844 v -7.367187 c 0,-0.953125 -0.082,-1.609375 -0.24219,-1.972656 -0.23828,-0.488282 -0.75,-0.804688 -1.54687,-0.953125 v -1.308594 h 6.6875 v 1.308594 c -0.79688,0.148437 -1.3086,0.464843 -1.55079,0.953125 -0.15625,0.363281 -0.23828,1.019531 -0.23828,1.972656 v 2.246094 h 0.34375"
       id="path14" />
    <path
       style="fill:#ffffff;fill-opacity:1;fill-rule:nonzero;stroke:none"
       d="m 240.64062,72.710938 c 0,2.789062 1.41797,4.183593 4.25391,4.183593 2.87891,0 4.32031,-2.113281 4.32031,-6.34375 0,-4.207031 -1.42968,-6.3125 -4.28906,-6.3125 -1.42969,0 -2.55078,0.527344 -3.36719,1.582032 -0.61328,0.78125 -0.91797,1.609375 -0.91797,2.484375 z m -4.90234,11.398437 c 1.19141,-0.113281 1.78906,-1.027344 1.78906,-2.742187 V 70.140625 c 0,-1.746094 0.16407,-2.976562 0.49219,-3.691406 1.15625,-2.539063 3.46094,-3.8125 6.90625,-3.8125 2.03125,0 3.78516,0.613281 5.25781,1.839844 1.73438,1.453125 2.60157,3.476562 2.60157,6.074218 0,2.5625 -0.89063,4.640625 -2.67188,6.242188 -1.34766,1.167969 -2.98437,1.753906 -4.91406,1.753906 -1.97266,0 -3.48828,-0.546875 -4.54297,-1.636719 h -0.0156 v 4.425782 c 0,1.847656 0.6836,2.773437 2.0586,2.773437 v 1.324219 h -6.96094 v -1.324219"
       id="path16" />
    <path
       style="fill:#ffffff;fill-opacity:1;fill-rule:nonzero;stroke:none"
       d="m 265.56641,70.242188 c -3.90235,0.214843 -5.85157,1.582031 -5.85157,4.101562 0,0.757813 0.26563,1.378906 0.80078,1.851563 0.5,0.433593 1.13672,0.648437 1.92188,0.648437 1.29297,0 2.18359,-0.5625 2.66797,-1.683594 0.30859,-0.761718 0.46094,-1.960937 0.46094,-3.605468 z m 0.42578,6.277343 c -1.39453,1.417969 -3,2.128907 -4.8125,2.128907 -1.52344,0 -2.70703,-0.414063 -3.5586,-1.242188 -0.83984,-0.75 -1.25781,-1.746094 -1.25781,-2.996094 0,-3.378906 3.06641,-5.25 9.20313,-5.613281 0,-1.542969 -0.17579,-2.648437 -0.52735,-3.316406 -0.39453,-0.886719 -1.18359,-1.328125 -2.36328,-1.328125 -0.97656,0 -1.62109,0.410156 -1.94141,1.226562 -0.25781,0.734375 -0.40234,1.128907 -0.42187,1.171875 -0.24219,0.351563 -0.63281,0.527344 -1.17578,0.527344 -0.91797,0 -1.37891,-0.414062 -1.37891,-1.242187 0,-0.746094 0.45313,-1.417969 1.35938,-2.007813 1.01172,-0.714844 2.30859,-1.070312 3.89843,-1.070312 2.4375,0 4.07813,0.792968 4.91797,2.382812 0.4961,0.972656 0.7461,2.453125 0.7461,4.4375 v 4.902344 c 0,1.574219 0.53515,2.363281 1.59765,2.363281 0.17188,0 0.42578,-0.08594 0.76953,-0.253906 l 0.33985,0.578125 c -0.69531,0.984375 -1.58985,1.480469 -2.69141,1.480469 -1.38281,0 -2.28515,-0.710938 -2.70312,-2.128907"
       id="path18" />
    <path
       style="fill:#ffffff;fill-opacity:1;fill-rule:nonzero;stroke:none"
       d="m 279.24609,56.378906 c 0.36328,-0.464843 0.85938,-0.699218 1.4961,-0.699218 0.58984,0 1.0625,0.199218 1.41406,0.597656 0.41797,0.40625 0.62891,0.890625 0.62891,1.445312 0,0.636719 -0.23438,1.144532 -0.69922,1.53125 -0.44141,0.363282 -0.89063,0.542969 -1.34375,0.542969 -0.53125,0 -1.01563,-0.207031 -1.44532,-0.628906 -0.41796,-0.429688 -0.6289,-0.914063 -0.6289,-1.445313 0,-0.488281 0.1914,-0.9375 0.57812,-1.34375 z m 0.86719,6.445313 v 11.621094 c 0,1.824218 0.61719,2.773437 1.85547,2.839843 v 1.363282 h -6.75391 v -1.34375 c 1.17969,-0.136719 1.76953,-1.089844 1.76953,-2.859375 V 67.0625 c 0,-0.941406 -0.0859,-1.589844 -0.2539,-1.941406 -0.19531,-0.476563 -0.69922,-0.792969 -1.51563,-0.953125 v -1.34375 z m -6.21094,-6.445313 c 0.35547,-0.464843 0.85938,-0.699218 1.51563,-0.699218 0.5664,0 1.03125,0.199218 1.39453,0.597656 0.42969,0.40625 0.64844,0.890625 0.64844,1.445312 0,0.636719 -0.23438,1.144532 -0.69922,1.53125 -0.44141,0.363282 -0.89063,0.542969 -1.34375,0.542969 -0.53125,0 -1.01563,-0.207031 -1.44531,-0.628906 -0.41797,-0.429688 -0.62891,-0.914063 -0.62891,-1.445313 0,-0.488281 0.1875,-0.9375 0.55859,-1.34375"
       id="path20" />
    <path
       style="fill:#ffffff;fill-opacity:1;fill-rule:nonzero;stroke:none"
       d="m 285.83594,77.304688 c 1.1914,-0.136719 1.78515,-1.089844 1.78515,-2.859375 V 67.0625 c 0,-0.941406 -0.0781,-1.589844 -0.23437,-1.941406 -0.24219,-0.476563 -0.75391,-0.792969 -1.55078,-0.953125 v -1.34375 h 6.73828 v 1.34375 c -0.78516,0.160156 -1.28906,0.46875 -1.51563,0.921875 -0.21484,0.351562 -0.32422,1.007812 -0.32422,1.972656 v 2.941406 h 7.11329 V 67.0625 c 0,-0.917969 -0.10938,-1.554687 -0.32422,-1.90625 -0.20313,-0.519531 -0.70313,-0.851562 -1.4961,-0.988281 v -1.34375 h 6.75391 v 1.34375 c -0.80469,0.160156 -1.30859,0.476562 -1.51563,0.953125 -0.21484,0.351562 -0.32421,1 -0.32421,1.941406 v 7.382813 c 0,1.746093 0.61718,2.699218 1.83984,2.859375 v 1.34375 h -6.75391 v -1.363282 c 1.21094,-0.06641 1.82032,-1.015625 1.82032,-2.839843 V 71.46875 h -7.11329 v 2.976563 c 0,1.824218 0.61329,2.773437 1.83985,2.839843 v 1.363282 h -6.73828 v -1.34375"
       id="path22" />
    <path
       style="fill:#ffffff;fill-opacity:1;fill-rule:nonzero;stroke:none"
       d="m 320.78516,75.449219 c -1.91797,2.132812 -4.11719,3.199219 -6.60157,3.199219 -2.0664,0 -3.8125,-0.660157 -5.24218,-1.972657 -1.57422,-1.429687 -2.36329,-3.347656 -2.36329,-5.753906 0,-2.378906 0.75,-4.355469 2.2461,-5.917969 1.4414,-1.609375 3.30078,-2.417968 5.57812,-2.417968 1.64844,0 2.9336,0.332031 3.86328,0.988281 0.86329,0.578125 1.29297,1.257812 1.29297,2.042969 0,0.972656 -0.52734,1.460937 -1.58203,1.460937 -1.08594,0 -1.65625,-0.539062 -1.69922,-1.617187 v -0.06641 C 316.1875,64.464844 315.59766,64 314.50781,64 c -1.22656,0 -2.20703,0.511719 -2.94531,1.53125 -0.94141,1.179688 -1.41016,2.976563 -1.41016,5.390625 0,2.203125 0.65235,3.777344 1.95703,4.730469 0.83594,0.660156 1.82422,0.988281 2.95704,0.988281 2.01953,0 3.65234,-0.667969 4.90234,-2.007812 l 0.81641,0.816406"
       id="path24" />
    <path
       style="fill:#ffffff;fill-opacity:1;fill-rule:nonzero;stroke:none"
       d="m 330.71484,77.21875 c 2.92578,0 4.39063,-1.480469 4.39063,-4.441406 0,-2.496094 -1.16406,-3.742188 -3.48828,-3.742188 -0.92969,0 -1.9961,0.289063 -3.19922,0.867188 v 7.316406 z m -0.49218,-14.394531 v 1.34375 c -0.8086,0.136719 -1.32422,0.46875 -1.55079,0.988281 -0.16796,0.351563 -0.2539,0.988281 -0.2539,1.90625 v 1.054688 c 1.39453,-0.714844 2.85156,-1.070313 4.37109,-1.070313 1.88281,0 3.36328,0.570313 4.44141,1.714844 0.98828,1.078125 1.48047,2.472656 1.48047,4.1875 0,1.460937 -0.42188,2.699219 -1.26172,3.707031 -1.0625,1.328125 -2.69141,1.992188 -4.88281,1.992188 h -9.11719 v -1.34375 c 1.21484,-0.160157 1.82031,-1.113282 1.82031,-2.859375 V 67.0625 c 0,-0.941406 -0.0898,-1.589844 -0.27344,-1.941406 -0.23437,-0.476563 -0.7539,-0.792969 -1.54687,-0.953125 v -1.34375 h 6.77344"
       id="path26" />
    <path
       style="fill:#ffffff;fill-opacity:1;fill-rule:nonzero;stroke:none"
       d="m 347.95312,69.273438 c 1.23829,0 2.16016,-0.316407 2.77344,-0.953125 0.20703,-0.25 0.6211,-1.027344 1.24219,-2.332032 1.17969,-2.390625 2.71094,-3.585937 4.59375,-3.585937 0.38672,0 0.69141,0.01563 0.91797,0.05078 v 4.488281 h -1.3086 c -0.38671,-0.828125 -0.82812,-1.242187 -1.32812,-1.242187 -0.46484,0 -0.98828,0.496094 -1.56641,1.480469 -0.78125,1.238281 -1.46484,2.03125 -2.05468,2.382812 v -0.01563 c 1.40625,0.238281 2.5625,0.921875 3.46875,2.058594 0.625,0.703125 1.34375,2.003906 2.16015,3.910156 0.375,0.785156 0.60156,1.242188 0.67969,1.378906 0.28516,0.261719 0.88672,0.535157 1.80469,0.816407 v 0.953125 c -0.53125,0.171875 -1.06641,0.253906 -1.60157,0.253906 -1.59765,0 -2.8164,-0.433594 -3.65625,-1.308594 -0.5664,-0.542969 -1.19531,-1.734375 -1.88671,-3.574219 -0.48829,-1.15625 -0.91016,-1.933593 -1.25782,-2.328125 -0.58984,-0.671875 -1.36328,-1.003906 -2.3164,-1.003906 h -1.00391 v 3.691406 c 0,1.78125 0.59766,2.726563 1.78516,2.839844 v 1.378906 h -6.6836 v -1.3789 C 343.90625,77.121094 344.5,76.175781 344.5,74.394531 v -7.367187 c 0,-0.953125 -0.0781,-1.609375 -0.23828,-1.972656 -0.23828,-0.488282 -0.75391,-0.804688 -1.54688,-0.953125 v -1.308594 h 6.6836 v 1.308594 c -0.79297,0.148437 -1.3086,0.464843 -1.54688,0.953125 -0.16015,0.363281 -0.23828,1.019531 -0.23828,1.972656 v 2.246094 h 0.33984"
       id="path28" />
    <path
       style="fill:#ffffff;fill-opacity:1;fill-rule:nonzero;stroke:none"
       d="m 370.05469,62.824219 v 1.34375 c -0.80469,0.160156 -1.32422,0.476562 -1.54688,0.953125 -0.14844,0.351562 -0.22265,1 -0.22265,1.941406 l 0.0156,5.734375 6.82422,-6.484375 c -0.0937,-1.15625 -0.68359,-1.871094 -1.76953,-2.144531 v -1.34375 h 6.65234 v 1.34375 c -0.73828,0.160156 -1.22656,0.46875 -1.46484,0.921875 -0.20313,0.371094 -0.30469,1.03125 -0.30469,1.972656 v 7.382813 c 0,1.769531 0.58984,2.722656 1.76953,2.859375 v 1.34375 h -6.73828 v -1.34375 c 1.23828,-0.136719 1.85547,-1.089844 1.85547,-2.859375 v -5.902344 l -6.83984,6.378906 c 0.0117,1.472656 0.60156,2.269531 1.76953,2.382813 v 1.34375 h -6.73828 v -1.363282 c 1.21484,-0.113281 1.82031,-1.058593 1.82031,-2.839843 V 67.0625 c 0,-1.828125 -0.60547,-2.785156 -1.82031,-2.875 v -1.363281 h 6.73828"
       id="path30" />
    <path
       style="fill:#ffffff;fill-opacity:1;fill-rule:nonzero;stroke:none"
       d="m 388.68359,60.257813 c -0.94531,-0.761719 -1.42578,-1.632813 -1.44922,-2.621094 -0.0195,-0.816406 0.28516,-1.496094 0.91797,-2.039063 0.5586,-0.582031 1.27344,-0.871093 2.14453,-0.871093 1.15625,0 1.73438,0.496093 1.73438,1.480468 0,0.875 -0.44531,1.3125 -1.34375,1.3125 -0.16797,0 -0.50391,-0.109375 -1,-0.324218 -0.19531,-0.113282 -0.40625,-0.171875 -0.62891,-0.171875 -0.33203,0 -0.49609,0.207031 -0.49609,0.613281 0,0.5 0.39062,0.917969 1.17187,1.257812 0.875,0.410157 1.96485,0.613282 3.26954,0.613282 1.34765,0 2.45312,-0.203125 3.3164,-0.613282 0.80469,-0.339843 1.20703,-0.757812 1.20703,-1.257812 0,-0.40625 -0.1914,-0.613281 -0.57812,-0.613281 -0.17969,0 -0.37891,0.05859 -0.59375,0.171875 -0.47656,0.214843 -0.82422,0.324218 -1.03906,0.324218 -0.83985,0 -1.25782,-0.4375 -1.25782,-1.3125 0,-0.984375 0.57813,-1.480468 1.73438,-1.480468 0.83984,0 1.54687,0.296875 2.1289,0.886718 0.60938,0.542969 0.91016,1.21875 0.89844,2.023438 -0.0195,0.988281 -0.50781,1.859375 -1.46094,2.621094 -1.10156,0.871093 -2.55078,1.308593 -4.35546,1.308593 -1.78125,0 -3.22266,-0.4375 -4.32032,-1.308593 z m 2.63672,2.566406 v 1.34375 c -0.80469,0.160156 -1.32422,0.476562 -1.55078,0.953125 -0.14844,0.351562 -0.21875,1 -0.21875,1.941406 l 0.0156,5.734375 6.82421,-6.484375 c -0.0937,-1.15625 -0.68359,-1.871094 -1.77343,-2.144531 v -1.34375 h 6.65234 v 1.34375 c -0.73828,0.160156 -1.22266,0.46875 -1.46094,0.921875 -0.20312,0.371094 -0.30468,1.03125 -0.30468,1.972656 v 7.382813 c 0,1.769531 0.58984,2.722656 1.76562,2.859375 v 1.34375 h -6.73437 v -1.34375 c 1.23437,-0.136719 1.85546,-1.089844 1.85546,-2.859375 v -5.902344 l -6.83984,6.378906 c 0.0117,1.472656 0.59766,2.269531 1.76953,2.382813 v 1.34375 H 384.582 v -1.363282 c 1.21484,-0.113281 1.82031,-1.058593 1.82031,-2.839843 V 67.0625 c 0,-1.828125 -0.60547,-2.785156 -1.82031,-2.875 v -1.363281 h 6.73828"
       id="path32" />
    <path
       style="fill:#ffffff;fill-opacity:1;fill-rule:nonzero;stroke:none"
       d="m 201.52734,91.75 v 1.394531 c -1.40625,0.160157 -2.10547,1.074219 -2.10547,2.738282 v 5.308597 c 0.0547,0.0117 0.2461,0.0195 0.57422,0.0195 1.80469,0 3.2461,-0.5 4.32422,-1.500002 0.6211,-0.613282 1.22266,-1.546875 1.80078,-2.804688 0.73828,-1.679687 1.42969,-2.875 2.07813,-3.589844 1.07422,-1.25 2.35937,-1.871093 3.84375,-1.871093 0.83984,0 1.62109,0.15625 2.34765,0.476562 v 5.695313 h -1.54687 c -0.16016,-1.382813 -0.72266,-2.074219 -1.6875,-2.074219 -0.67969,0 -1.66406,0.886719 -2.95703,2.65625 -1.51172,1.960941 -3.02344,3.144531 -4.54297,3.554691 v 0.0312 c 3.45703,0.42187 5.99219,2.59375 7.60547,6.51953 0.97265,2.44922 1.62109,3.9375 1.9375,4.47265 0.875,1.50782 2.375,2.26954 4.50781,2.28125 v 1.69922 c -0.70312,0.0898 -1.58203,0.17969 -2.63672,0.27344 -2.24609,-0.0703 -3.98047,-0.86328 -5.20703,-2.38281 -0.67969,-0.875 -1.77344,-3.13672 -3.28125,-6.78906 -0.86328,-2.19922 -1.96875,-3.66407 -3.31641,-4.38672 -0.80468,-0.44532 -1.95312,-0.66407 -3.4375,-0.66407 h -0.40625 v 9.81641 c 0,1.71094 0.69922,2.625 2.10547,2.73828 v 1.46094 h -7.72265 v -1.46094 c 1.40625,-0.13672 2.10937,-1.05078 2.10937,-2.73828 V 95.882813 c 0,-1.664063 -0.70312,-2.578125 -2.10937,-2.738282 V 91.75 h 7.72265"
       id="path34" />
    <path
       style="fill:#ffffff;fill-opacity:1;fill-rule:nonzero;stroke:none"
       d="m 230.75391,108.37109 c -3.90235,0.21485 -5.85547,1.58204 -5.85547,4.10157 0,0.75781 0.26562,1.375 0.80078,1.85156 0.5,0.43359 1.14062,0.64844 1.92187,0.64844 1.29297,0 2.1836,-0.5625 2.67188,-1.6836 0.30469,-0.76172 0.46094,-1.96484 0.46094,-3.60937 z m 0.42187,6.27735 c -1.39453,1.41797 -3,2.125 -4.8125,2.125 -1.51953,0 -2.70703,-0.41406 -3.55469,-1.24219 -0.83984,-0.74609 -1.26172,-1.74609 -1.26172,-2.99219 0,-3.3789 3.06641,-5.25 9.20704,-5.61328 0,-1.54297 -0.17969,-2.64844 -0.53125,-3.32031 -0.39454,-0.88281 -1.1836,-1.32422 -2.36329,-1.32422 -0.97656,0 -1.62109,0.40625 -1.9375,1.22266 -0.26171,0.73828 -0.40234,1.1289 -0.42578,1.17578 -0.23828,0.35156 -0.63281,0.52734 -1.17578,0.52734 -0.91797,0 -1.3789,-0.41406 -1.3789,-1.24219 0,-0.75 0.45312,-1.41796 1.36328,-2.00781 1.00781,-0.71484 2.30468,-1.07031 3.89453,-1.07031 2.4375,0 4.07812,0.79297 4.91797,2.37891 0.49609,0.97656 0.74609,2.45703 0.74609,4.4414 v 4.89844 c 0,1.57812 0.53516,2.36719 1.60156,2.36719 0.16797,0 0.42578,-0.0859 0.76563,-0.25782 l 0.33984,0.58204 c -0.6914,0.98437 -1.58984,1.47656 -2.6875,1.47656 -1.38672,0 -2.28515,-0.70703 -2.70703,-2.125"
       id="path36" />
    <path
       style="fill:#ffffff;fill-opacity:1;fill-rule:nonzero;stroke:none"
       d="m 252.57422,100.95313 v 5.15625 H 251.25 c -0.20313,-2.48438 -1.5625,-3.72657 -4.06641,-3.72657 h -0.57812 v 10.19141 c 0,1.77734 0.625,2.72656 1.87109,2.83984 v 1.35938 h -6.80469 v -1.34375 c 0.80469,-0.125 1.30469,-0.39453 1.4961,-0.81641 0.22656,-0.39453 0.33984,-1.07812 0.33984,-2.03906 v -10.19141 h -0.52734 c -2.41406,0 -3.78906,1.24219 -4.11719,3.72657 h -1.32812 v -5.15625 h 15.03906"
       id="path38" />
    <path
       style="fill:#ffffff;fill-opacity:1;fill-rule:nonzero;stroke:none"
       d="m 260.57031,103.52344 c -0.85156,1.00781 -1.27734,2.80469 -1.27734,5.39062 0,1.76953 0.18359,3.10547 0.54687,4 0.59766,1.72266 1.82422,2.58594 3.67578,2.58594 2.8086,0 4.21485,-2.19531 4.21485,-6.58594 0,-2.58593 -0.42969,-4.38281 -1.29297,-5.39062 -0.62109,-0.82813 -1.59766,-1.24219 -2.92188,-1.24219 -1.30468,0 -2.28906,0.41406 -2.94531,1.24219 z m 10.4961,3.1289 c 0.17187,0.70313 0.2539,1.4961 0.2539,2.38282 0,0.5664 -0.082,1.22265 -0.2539,1.97265 -0.58985,2.35938 -1.87891,4.03907 -3.86329,5.03516 -1.14453,0.58984 -2.35546,0.88672 -3.64062,0.88672 -1.30078,0 -2.50391,-0.29688 -3.60547,-0.88672 -2.01953,-0.99609 -3.32812,-2.67578 -3.92969,-5.03516 -0.17187,-0.75 -0.2539,-1.40625 -0.2539,-1.97265 0,-0.88672 0.082,-1.67969 0.2539,-2.38282 1.03125,-3.99218 3.54297,-5.98828 7.53516,-5.98828 4.00391,0 6.50391,1.9961 7.50391,5.98828"
       id="path40" />
    <path
       style="fill:#ffffff;fill-opacity:1;fill-rule:nonzero;stroke:none"
       d="m 284.16406,100.95313 3.45313,11.82421 c 0.54687,1.51954 1.38672,2.39454 2.51953,2.6211 v 1.34375 h -4.73047 l -3.45313,-12.16406 -0.0664,0.0312 c -1.21485,4.07421 -1.88281,6.26953 -2.00781,6.58593 -1.36329,3.90235 -2.96875,5.85157 -4.81641,5.85157 -0.53125,0 -0.92188,-0.0625 -1.17188,-0.1875 -0.67187,-0.30469 -1.0039,-0.88282 -1.0039,-1.73438 0,-0.89453 0.55469,-1.34375 1.66797,-1.34375 0.21484,0 0.48047,0.0625 0.79687,0.1875 0.27344,0.13672 0.48438,0.20313 0.62891,0.20313 0.25,0 0.42578,-0.0352 0.53125,-0.10157 0.71094,-0.25 1.4414,-1.57812 2.1914,-3.98047 1.13672,-3.57421 1.70313,-5.76171 1.70313,-6.5664 -0.22656,-0.79688 -0.82813,-1.21094 -1.80469,-1.24219 v -1.32812 h 5.5625"
       id="path42" />
    <path
       style="fill:#ffffff;fill-opacity:1;fill-rule:nonzero;stroke:none"
       d="m 300.67969,100.95313 v 1.34375 c -0.8086,0.16015 -1.32422,0.47656 -1.55078,0.95312 -0.14844,0.35156 -0.21875,1 -0.21875,1.9375 l 0.0156,5.73438 6.82031,-6.48047 c -0.0898,-1.15625 -0.67968,-1.8711 -1.76562,-2.14453 v -1.34375 h 6.65234 v 1.34375 c -0.73828,0.16015 -1.22656,0.46484 -1.46484,0.91796 -0.20313,0.375 -0.3086,1.03516 -0.3086,1.97266 v 7.38672 c 0,1.76953 0.58985,2.72266 1.77344,2.85547 v 1.34375 h -6.73828 v -1.34375 c 1.23438,-0.13281 1.85156,-1.08594 1.85156,-2.85547 v -5.90234 l -6.83593,6.3789 c 0.0117,1.47266 0.60156,2.26563 1.76953,2.37891 v 1.34375 h -6.73828 v -1.35938 c 1.21484,-0.11328 1.82031,-1.0625 1.82031,-2.83984 v -7.38672 c 0,-1.82422 -0.60547,-2.78125 -1.82031,-2.875 v -1.35937 h 6.73828"
       id="path44" />
    <path
       style="fill:#ffffff;fill-opacity:1;fill-rule:nonzero;stroke:none"
       d="m 332.04687,102.3125 c -1.20312,0.0937 -1.80468,1.02734 -1.80468,2.80859 v 8.9336 c 0,0.50781 0.30468,0.96094 0.91797,1.35937 1.91406,1.31641 2.875,2.5625 2.875,3.74219 0,1.23828 -0.44141,2.28125 -1.32813,3.12891 -0.98437,0.95312 -2.26953,1.42968 -3.84375,1.42968 -1.10937,0 -2.52344,-0.29296 -4.23437,-0.88281 -2.78125,-0.97656 -4.53907,-1.46484 -5.27344,-1.46484 -0.64844,0 -0.97266,0.27734 -0.97266,0.83594 0,0.125 0.0703,0.1875 0.20703,0.1875 0.23438,0 0.36719,-0.0352 0.39063,-0.10547 0.0898,-0.11328 0.21484,-0.16797 0.375,-0.16797 0.66797,0 1,0.35156 1,1.05469 0,0.85156 -0.42969,1.27734 -1.29297,1.27734 -1.16797,0 -1.75,-0.60156 -1.75,-1.80469 0,-0.83984 0.35547,-1.58203 1.07031,-2.23047 0.92969,-0.79297 2.22266,-1.1875 3.87891,-1.1875 0.875,0 2.08594,0.26563 3.64062,0.79688 2.67578,0.85156 4.20703,1.27734 4.59375,1.27734 1.47657,0 2.21094,-0.72656 2.21094,-2.17969 0,-0.73437 -0.32812,-1.32031 -0.98437,-1.75 -0.63672,-0.38671 -1.39063,-0.57812 -2.26172,-0.57812 h -14.42969 v -1.36328 c 1.21484,-0.0898 1.82031,-1.03516 1.82031,-2.83985 v -7.46875 c 0,-1.84765 -0.60547,-2.78515 -1.82031,-2.80859 v -1.35937 h 6.77344 v 1.35937 c -0.76172,0.0234 -1.27735,0.30078 -1.55078,0.83594 C 320.08594,103.5 320,104.15625 320,105.12109 v 10.20704 h 7.07812 v -10.20704 c 0,-0.96484 -0.0859,-1.62109 -0.25781,-1.97265 -0.26953,-0.53516 -0.79297,-0.8125 -1.5625,-0.83594 v -1.35937 h 6.78906 v 1.35937"
       id="path46" />
    <path
       style="fill:#ffffff;fill-opacity:1;fill-rule:nonzero;stroke:none"
       d="m 344.72656,115.34766 c 2.92188,0 4.38672,-1.48047 4.38672,-4.44141 0,-2.49609 -1.16406,-3.74219 -3.48828,-3.74219 -0.92969,0 -1.99609,0.28907 -3.19531,0.86719 v 7.31641 z m -0.49609,-14.39453 v 1.34375 c -0.80469,0.13671 -1.32031,0.46484 -1.54688,0.98828 -0.17187,0.35156 -0.2539,0.98437 -0.2539,1.90234 v 1.05859 c 1.39062,-0.71484 2.84765,-1.07421 4.37109,-1.07421 1.88281,0 3.35938,0.57421 4.4375,1.71875 0.98828,1.07812 1.48047,2.47265 1.48047,4.18359 0,1.46484 -0.41797,2.69922 -1.25781,3.71094 -1.06641,1.32422 -2.69141,1.98828 -4.88282,1.98828 h -9.11718 v -1.34375 c 1.21484,-0.15625 1.82031,-1.10938 1.82031,-2.85547 v -7.38672 c 0,-0.9375 -0.0937,-1.58594 -0.27344,-1.9375 -0.23828,-0.47656 -0.7539,-0.79297 -1.54687,-0.95312 v -1.34375 h 6.76953"
       id="path48" />
    <path
       style="fill:#ffffff;fill-opacity:1;fill-rule:nonzero;stroke:none"
       d="m 361.96484,107.40234 c 1.23438,0 2.16016,-0.3164 2.77344,-0.95312 0.20313,-0.25 0.61719,-1.02734 1.24219,-2.33203 1.17969,-2.39063 2.70703,-3.58985 4.58984,-3.58985 0.38672,0 0.69531,0.0195 0.92188,0.0508 v 4.49218 h -1.3086 c -0.38672,-0.82812 -0.82812,-1.24218 -1.32812,-1.24218 -0.46485,0 -0.98828,0.49218 -1.56641,1.48046 -0.78125,1.23829 -1.46875,2.03125 -2.05859,2.38282 v -0.0195 c 1.40625,0.23828 2.5625,0.92578 3.46875,2.05859 0.625,0.70312 1.34765,2.00781 2.16015,3.91406 0.375,0.78125 0.60547,1.24219 0.6836,1.37891 0.28125,0.26172 0.88281,0.53125 1.80469,0.8164 v 0.95313 c -0.53516,0.16797 -1.07032,0.25391 -1.60157,0.25391 -1.59765,0 -2.8164,-0.4375 -3.65625,-1.3086 -0.57031,-0.54687 -1.19922,-1.73437 -1.89062,-3.57422 -0.48438,-1.15625 -0.90625,-1.93359 -1.25781,-2.32812 -0.58985,-0.67188 -1.36329,-1.00781 -2.3125,-1.00781 H 361.625 v 3.69531 c 0,1.78125 0.59375,2.72656 1.78516,2.83984 v 1.37891 h -6.6836 v -1.37891 c 1.1875,-0.11328 1.78516,-1.05859 1.78516,-2.83984 v -7.36719 c 0,-0.95312 -0.0781,-1.60937 -0.23828,-1.97266 -0.23828,-0.48828 -0.75391,-0.80468 -1.54688,-0.95312 v -1.3125 h 6.6836 v 1.3125 c -0.79297,0.14844 -1.3086,0.46484 -1.54688,0.95312 -0.16016,0.36329 -0.23828,1.01954 -0.23828,1.97266 v 2.24609 h 0.33984"
       id="path50" />
    <path
       style="fill:#ffffff;fill-opacity:1;fill-rule:nonzero;stroke:none"
       d="m 384.06641,100.95313 v 1.34375 c -0.80469,0.16015 -1.32422,0.47656 -1.55079,0.95312 -0.14843,0.35156 -0.21875,1 -0.21875,1.9375 l 0.0156,5.73438 6.82422,-6.48047 c -0.0937,-1.15625 -0.6836,-1.8711 -1.77344,-2.14453 v -1.34375 h 6.65625 v 1.34375 c -0.74219,0.16015 -1.22656,0.46484 -1.46484,0.91796 -0.20313,0.375 -0.3086,1.03516 -0.3086,1.97266 v 7.38672 c 0,1.76953 0.59375,2.72266 1.77344,2.85547 v 1.34375 h -6.73828 v -1.34375 c 1.23437,-0.13281 1.85547,-1.08594 1.85547,-2.85547 v -5.90234 l -6.83985,6.3789 c 0.0117,1.47266 0.59766,2.26563 1.76954,2.37891 v 1.34375 h -6.73829 v -1.35938 c 1.21485,-0.11328 1.82032,-1.0625 1.82032,-2.83984 v -7.38672 c 0,-1.82422 -0.60547,-2.78125 -1.82032,-2.875 v -1.35937 h 6.73829"
       id="path52" />
    <path
       style="fill:#ffffff;fill-opacity:1;fill-rule:nonzero;stroke:none"
       d="M 402.69141,98.386719 C 401.75,97.625 401.26953,96.75 401.24609,95.765625 c -0.0234,-0.816406 0.28516,-1.496094 0.91797,-2.042969 0.5586,-0.578125 1.27344,-0.867187 2.14453,-0.867187 1.15625,0 1.73438,0.492187 1.73438,1.480469 0,0.875 -0.44531,1.308593 -1.34375,1.308593 -0.16797,0 -0.50391,-0.105468 -1.00391,-0.320312 -0.1914,-0.113281 -0.40234,-0.171875 -0.6289,-0.171875 -0.32813,0 -0.49219,0.203125 -0.49219,0.613281 0,0.5 0.39062,0.917969 1.17187,1.257813 0.875,0.410156 1.96485,0.613281 3.26953,0.613281 1.34766,0 2.45313,-0.203125 3.31641,-0.613281 0.80469,-0.339844 1.20703,-0.757813 1.20703,-1.257813 0,-0.410156 -0.1914,-0.613281 -0.57812,-0.613281 -0.1836,0 -0.38282,0.05859 -0.59766,0.171875 -0.47266,0.214844 -0.82031,0.320312 -1.03516,0.320312 -0.83984,0 -1.26171,-0.433593 -1.26171,-1.308593 0,-0.988282 0.58203,-1.480469 1.73828,-1.480469 0.83984,0 1.54687,0.296875 2.125,0.882812 0.61328,0.546875 0.91406,1.222657 0.90234,2.027344 -0.0234,0.984375 -0.51172,1.859375 -1.46484,2.621094 -1.09766,0.871094 -2.55078,1.308594 -4.35157,1.308594 -1.78125,0 -3.22265,-0.4375 -4.32421,-1.308594 z m 2.63671,2.566411 v 1.34375 c -0.80468,0.16015 -1.32031,0.47656 -1.54687,0.95312 -0.14844,0.35156 -0.21875,1 -0.21875,1.9375 l 0.0156,5.73438 6.82032,-6.48047 c -0.0899,-1.15625 -0.67969,-1.8711 -1.76953,-2.14453 v -1.34375 h 6.65234 v 1.34375 c -0.73828,0.16015 -1.22266,0.46484 -1.46484,0.91796 -0.20313,0.375 -0.30469,1.03516 -0.30469,1.97266 v 7.38672 c 0,1.76953 0.58984,2.72266 1.76953,2.85547 v 1.34375 h -6.73438 v -1.34375 c 1.23438,-0.13281 1.85157,-1.08594 1.85157,-2.85547 v -5.90234 l -6.83594,6.3789 c 0.008,1.47266 0.59766,2.26563 1.76562,2.37891 v 1.34375 h -6.73437 v -1.35938 c 1.21484,-0.11328 1.82031,-1.0625 1.82031,-2.83984 v -7.38672 c 0,-1.82422 -0.60547,-2.78125 -1.82031,-2.875 v -1.35937 h 6.73437"
       id="path54" />
    <path
       style="fill:#ffffff;fill-opacity:1;fill-rule:nonzero;stroke:none"
       d="m 216.48437,131.28906 c -1.53125,0.31641 -2.64453,1.33203 -3.33593,3.04688 l -5.10157,11.76953 c -1.5,3.40625 -2.54687,5.53125 -3.14843,6.38281 -1.30469,1.82422 -3.00782,2.73828 -5.10547,2.73828 -1.1211,0 -2.09766,-0.22656 -2.92578,-0.67969 -1.13282,-0.57031 -1.69922,-1.40625 -1.69922,-2.51953 0,-1.3164 0.61719,-1.97265 1.85156,-1.97265 0.51172,0 0.99219,0.17968 1.44922,0.54297 0.40625,0.42187 0.60937,0.875 0.60937,1.36328 l -0.0312,0.8164 c 0,0.66797 0.44532,1.00391 1.34375,1.00391 1.82422,0 3.35157,-1.65625 4.57422,-4.96875 l -8.38672,-14.81641 c -0.95312,-1.73437 -1.875,-2.625 -2.77343,-2.67187 v -1.46485 h 7.60547 v 1.46485 c -0.96485,0.0234 -1.44532,0.35156 -1.44532,0.98828 0,0.39453 0.27735,1.06641 0.83203,2.00391 l 5.90235,10.60156 h -0.0664 l 4.64453,-10.70313 c 0.27344,-0.53125 0.41016,-1.01953 0.41016,-1.46093 0,-0.45313 -0.16797,-0.81641 -0.49609,-1.08985 -0.29297,-0.29297 -0.74219,-0.39453 -1.34375,-0.30469 v -1.5 h 6.63671 v 1.42969"
       id="path56" />
    <path
       style="fill:#ffffff;fill-opacity:1;fill-rule:nonzero;stroke:none"
       d="m 215.82031,153.55859 c 1.19141,-0.13672 1.78516,-1.08984 1.78516,-2.85937 v -7.38281 c 0,-0.94141 -0.0781,-1.58594 -0.23828,-1.9375 -0.23828,-0.47657 -0.75391,-0.79297 -1.54688,-0.95313 v -1.34375 h 6.73828 v 1.34375 c -0.78515,0.16016 -1.28906,0.46484 -1.51562,0.91797 -0.21875,0.35156 -0.32422,1.00781 -0.32422,1.97266 v 2.94531 h 7.10937 v -2.94531 c 0,-0.91797 -0.10546,-1.55079 -0.32031,-1.90625 -0.20312,-0.51954 -0.70312,-0.84766 -1.49609,-0.98438 v -1.34375 h 6.7539 v 1.34375 c -0.80859,0.16016 -1.3125,0.47656 -1.51562,0.95313 -0.21484,0.35156 -0.32422,0.99609 -0.32422,1.9375 v 7.38281 c 0,1.75 0.61328,2.69922 1.83984,2.85937 v 1.34375 h -6.7539 v -1.35937 c 1.21094,-0.0703 1.8164,-1.01563 1.8164,-2.84375 v -2.97656 h -7.10937 v 2.97656 c 0,1.82812 0.61328,2.77344 1.83984,2.84375 v 1.35937 h -6.73828 v -1.34375"
       id="path58" />
    <path
       style="fill:#ffffff;fill-opacity:1;fill-rule:nonzero;stroke:none"
       d="m 238.6875,132.60156 c 0.36328,-0.46484 0.86328,-0.69922 1.49609,-0.69922 0.58203,0 1.05078,0.19141 1.41407,0.57813 0.41796,0.41015 0.6289,0.89062 0.6289,1.44531 0,0.64844 -0.23437,1.15625 -0.69922,1.53125 -0.4414,0.36328 -0.88672,0.54688 -1.34375,0.54688 -0.51953,0 -1,-0.21094 -1.44531,-0.63282 -0.41797,-0.42968 -0.62891,-0.91015 -0.62891,-1.44531 0,-0.48828 0.19141,-0.92969 0.57813,-1.32422 z m 3.46875,6.48047 v 11.61719 c 0,1.82812 0.61328,2.77344 1.83984,2.84375 v 1.35937 h -6.73828 v -1.34375 c 1.19141,-0.13672 1.78906,-1.08984 1.78906,-2.85937 v -7.38281 c 0,-0.94141 -0.082,-1.58594 -0.23828,-1.9375 -0.24218,-0.47657 -0.7539,-0.79297 -1.55078,-0.95313 v -1.34375 h 4.89844"
       id="path60" />
    <path
       style="fill:#ffffff;fill-opacity:1;fill-rule:nonzero;stroke:none"
       d="m 252.96875,153.33984 h 2.63672 c 2.69922,0 4.04687,-1.01562 4.04687,-3.04687 0,-1.96094 -1.44922,-2.94141 -4.35156,-2.94141 h -2.33203 z m 0,-7.41797 h 2.53516 c 2.32421,0 3.48828,-0.92578 3.48828,-2.77343 0,-1.75782 -1.16407,-2.63672 -3.48828,-2.63672 h -2.53516 z m 3.19922,-6.83984 c 1.48437,0 2.80078,0.16406 3.94531,0.49219 1.53125,0.5664 2.29688,1.67969 2.29688,3.33594 0,1.97265 -1.03125,3.15625 -3.09766,3.55468 l -0.15234,0.0156 c 2.73437,0.23047 4.10156,1.57812 4.10156,4.05078 0,2.91406 -2.10938,4.37109 -6.32813,4.37109 H 248 v -1.35937 c 1.21484,-0.0703 1.82031,-1.01563 1.82031,-2.84375 v -7.38281 c 0,-0.89454 -0.0898,-1.53125 -0.26953,-1.90625 -0.23828,-0.51954 -0.75391,-0.84766 -1.55078,-0.98438 V 139.082 h 8.16797"
       id="path62" />
    <path
       style="fill:#ffffff;fill-opacity:1;fill-rule:nonzero;stroke:none"
       d="m 276.66016,144.15234 c 0,-2.38281 -0.95704,-3.57422 -2.875,-3.57422 -2.13282,0 -3.25391,1.27735 -3.36719,3.82813 h 6.24219 z m 3.82812,7.39844 c -1.90234,2.28125 -4.03906,3.42188 -6.39453,3.42188 -1.78125,0 -3.34766,-0.47657 -4.69531,-1.42969 -1.76953,-1.29297 -2.65625,-3.3125 -2.65625,-6.0586 0,-2.53906 0.69922,-4.60937 2.09375,-6.20703 1.3164,-1.58984 3.02734,-2.38281 5.13672,-2.38281 1.95312,0 3.48828,0.71484 4.61328,2.14453 0.97265,1.25781 1.46093,2.72266 1.46093,4.38672 v 0.42578 h -9.69531 c -0.0234,0.28516 -0.0351,0.80469 -0.0351,1.56641 0,3.84375 1.4414,5.76562 4.32031,5.76562 1.72265,0 3.39062,-0.82031 5.0039,-2.46484 l 0.84766,0.83203"
       id="path64" />
    <path
       style="fill:#ffffff;fill-opacity:1;fill-rule:nonzero;stroke:none"
       d="m 287.44531,148.96484 c 0,2.79297 1.41797,4.1875 4.25391,4.1875 2.88281,0 4.32031,-2.11718 4.32031,-6.34765 0,-4.20703 -1.42578,-6.3125 -4.28516,-6.3125 -1.42968,0 -2.55078,0.52734 -3.36718,1.58203 -0.61328,0.78515 -0.92188,1.61328 -0.92188,2.48437 z m -4.89844,11.39844 c 1.19141,-0.11328 1.78907,-1.02734 1.78907,-2.73828 v -11.22656 c 0,-1.75 0.16015,-2.98047 0.49218,-3.69532 1.15625,-2.53906 3.45704,-3.80859 6.90625,-3.80859 2.03125,0 3.78125,0.61328 5.25782,1.83594 1.73437,1.45312 2.60156,3.47656 2.60156,6.07422 0,2.5625 -0.89063,4.64453 -2.67188,6.24609 -1.34765,1.16797 -2.98828,1.75 -4.91406,1.75 -1.97656,0 -3.48828,-0.54297 -4.54297,-1.63281 h -0.0195 v 4.42187 c 0,1.84766 0.6875,2.77344 2.0625,2.77344 v 1.32813 h -6.96094 v -1.32813"
       id="path66" />
    <path
       style="fill:#ffffff;fill-opacity:1;fill-rule:nonzero;stroke:none"
       d="m 317.375,151.70312 c -1.91406,2.13282 -4.11719,3.19922 -6.60156,3.19922 -2.0625,0 -3.8086,-0.65625 -5.23828,-1.97265 -1.57422,-1.42969 -2.36329,-3.34375 -2.36329,-5.75 0,-2.38282 0.75,-4.35547 2.2461,-5.92188 1.4375,-1.60937 3.30078,-2.41406 5.57812,-2.41406 1.64453,0 2.9336,0.32812 3.86328,0.98437 0.85938,0.58204 1.29297,1.26172 1.29297,2.04297 0,0.97657 -0.52734,1.46485 -1.58203,1.46485 -1.08984,0 -1.65625,-0.53907 -1.70312,-1.61719 v -0.0703 c -0.0899,-0.92578 -0.67969,-1.39453 -1.76953,-1.39453 -1.22266,0 -2.20313,0.51171 -2.94141,1.53125 -0.94141,1.17968 -1.41406,2.98046 -1.41406,5.39453 0,2.19922 0.65234,3.77734 1.95703,4.73047 0.83984,0.65625 1.82422,0.98437 2.96094,0.98437 2.01953,0 3.65234,-0.66797 4.89843,-2.00781 l 0.81641,0.8164"
       id="path68" />
    <path
       style="fill:#ffffff;fill-opacity:1;fill-rule:nonzero;stroke:none"
       d="m 327.64844,139.08203 v 1.34375 c -0.80469,0.16016 -1.32032,0.47656 -1.54688,0.95313 -0.14844,0.35156 -0.21875,0.99609 -0.21875,1.9375 l 0.0156,5.73437 6.82031,-6.48047 c -0.0898,-1.16015 -0.67969,-1.87109 -1.76953,-2.14453 v -1.34375 h 6.65234 v 1.34375 c -0.73828,0.16016 -1.22265,0.46484 -1.46094,0.91797 -0.20703,0.375 -0.30859,1.03125 -0.30859,1.97266 v 7.38281 c 0,1.76953 0.58984,2.72265 1.76953,2.85937 v 1.34375 h -6.73828 v -1.34375 c 1.23828,-0.13672 1.85547,-1.08984 1.85547,-2.85937 v -5.90235 l -6.83594,6.37891 c 0.008,1.47656 0.59766,2.26953 1.76563,2.38281 v 1.34375 h -6.73438 v -1.35937 c 1.21485,-0.11328 1.82031,-1.0625 1.82031,-2.84375 v -7.38281 c 0,-1.82422 -0.60546,-2.78516 -1.82031,-2.875 v -1.35938 h 6.73438"
       id="path70" />
    <path
       style="fill:#ffffff;fill-opacity:1;fill-rule:nonzero;stroke:none"
       d="m 356.69531,139.08203 v 5.15234 h -1.32812 c -0.20313,-2.48046 -1.5586,-3.72265 -4.06641,-3.72265 h -0.57812 v 10.1875 c 0,1.78125 0.625,2.73047 1.87109,2.84375 v 1.35937 h -6.80469 v -1.34375 c 0.80469,-0.125 1.30469,-0.39843 1.4961,-0.8164 0.22656,-0.39453 0.34375,-1.07813 0.34375,-2.04297 v -10.1875 h -0.52735 c -2.41797,0 -3.78906,1.24219 -4.12109,3.72265 h -1.32422 v -5.15234 h 15.03906"
       id="path72" />
    <path
       style="fill:#ffffff;fill-opacity:1;fill-rule:nonzero;stroke:none"
       d="m 369.48047,144.15234 c 0,-2.38281 -0.96094,-3.57422 -2.875,-3.57422 -2.13281,0 -3.25391,1.27735 -3.3711,3.82813 h 6.2461 z m 3.82812,7.39844 c -1.90625,2.28125 -4.03906,3.42188 -6.39843,3.42188 -1.78125,0 -3.34375,-0.47657 -4.69532,-1.42969 -1.76953,-1.29297 -2.65234,-3.3125 -2.65234,-6.0586 0,-2.53906 0.69531,-4.60937 2.08984,-6.20703 1.31641,-1.58984 3.03125,-2.38281 5.14063,-2.38281 1.94922,0 3.48437,0.71484 4.60937,2.14453 0.97657,1.25781 1.46094,2.72266 1.46094,4.38672 v 0.42578 h -9.69531 c -0.0234,0.28516 -0.0352,0.80469 -0.0352,1.56641 0,3.84375 1.44141,5.76562 4.32031,5.76562 1.72657,0 3.39454,-0.82031 5.00391,-2.46484 l 0.85156,0.83203"
       id="path74" />
    <path
       style="fill:#ffffff;fill-opacity:1;fill-rule:nonzero;stroke:none"
       d="m 391.05469,139.08203 v 5.15234 h -1.32813 c -0.20703,-2.48046 -1.5625,-3.72265 -4.0664,-3.72265 h -0.57813 v 10.1875 c 0,1.78125 0.62109,2.73047 1.87109,2.84375 v 1.35937 h -6.80468 v -1.34375 c 0.80468,-0.125 1.30468,-0.39843 1.49609,-0.8164 0.22656,-0.39453 0.33984,-1.07813 0.33984,-2.04297 v -10.1875 h -0.52734 c -2.41406,0 -3.78516,1.24219 -4.11719,3.72265 h -1.32422 v -5.15234 h 15.03907"
       id="path76" />
  </g>
</svg>
